<?xml version="1.0" encoding="UTF-8"?>
<svg xmlns="http://www.w3.org/2000/svg" version="1.1" width="250" height="250" viewBox="0 0 250 250"><rect x="0" y="0" width="250" height="250" fill="#ffffff"/><g transform="scale(8.621)"><g transform="translate(0,0)"><path fill-rule="evenodd" d="M8 0L8 1L10 1L10 0ZM13 0L13 2L11 2L11 4L10 4L10 3L9 3L9 2L8 2L8 5L9 5L9 6L8 6L8 7L9 7L9 8L8 8L8 10L10 10L10 9L9 9L9 8L10 8L10 7L11 7L11 8L12 8L12 7L13 7L13 6L14 6L14 8L15 8L15 9L14 9L14 11L11 11L11 13L10 13L10 12L9 12L9 13L7 13L7 12L8 12L8 11L7 11L7 10L6 10L6 9L7 9L7 8L6 8L6 9L4 9L4 8L0 8L0 9L1 9L1 11L0 11L0 15L1 15L1 16L0 16L0 17L1 17L1 18L0 18L0 19L1 19L1 18L2 18L2 19L3 19L3 20L1 20L1 21L3 21L3 20L4 20L4 21L7 21L7 20L8 20L8 22L9 22L9 21L10 21L10 20L11 20L11 21L12 21L12 22L10 22L10 23L9 23L9 25L8 25L8 29L9 29L9 28L12 28L12 29L13 29L13 28L12 28L12 26L13 26L13 27L14 27L14 29L15 29L15 28L16 28L16 27L14 27L14 26L17 26L17 25L18 25L18 24L17 24L17 23L20 23L20 25L21 25L21 26L22 26L22 25L24 25L24 26L23 26L23 28L24 28L24 26L26 26L26 27L25 27L25 29L26 29L26 27L27 27L27 29L28 29L28 27L29 27L29 25L28 25L28 27L27 27L27 26L26 26L26 25L27 25L27 24L28 24L28 22L29 22L29 21L27 21L27 18L28 18L28 15L29 15L29 13L27 13L27 12L25 12L25 9L27 9L27 8L24 8L24 9L22 9L22 8L21 8L21 11L22 11L22 10L23 10L23 12L25 12L25 13L26 13L26 15L27 15L27 17L26 17L26 16L25 16L25 14L24 14L24 13L22 13L22 15L23 15L23 16L24 16L24 17L23 17L23 19L22 19L22 18L21 18L21 17L22 17L22 16L21 16L21 14L20 14L20 12L19 12L19 10L20 10L20 9L18 9L18 8L20 8L20 7L21 7L21 6L20 6L20 4L19 4L19 5L18 5L18 7L17 7L17 6L16 6L16 7L15 7L15 6L14 6L14 5L12 5L12 3L13 3L13 4L14 4L14 3L15 3L15 2L14 2L14 0ZM17 0L17 1L18 1L18 3L17 3L17 4L15 4L15 5L17 5L17 4L18 4L18 3L19 3L19 1L21 1L21 0ZM10 5L10 6L9 6L9 7L10 7L10 6L11 6L11 7L12 7L12 5ZM19 6L19 7L20 7L20 6ZM28 8L28 10L26 10L26 11L28 11L28 12L29 12L29 11L28 11L28 10L29 10L29 8ZM15 9L15 11L14 11L14 12L12 12L12 14L11 14L11 15L9 15L9 16L10 16L10 17L9 17L9 18L7 18L7 17L8 17L8 14L7 14L7 13L6 13L6 12L7 12L7 11L5 11L5 10L2 10L2 12L1 12L1 15L2 15L2 16L1 16L1 17L2 17L2 18L3 18L3 19L4 19L4 18L7 18L7 19L5 19L5 20L7 20L7 19L9 19L9 18L10 18L10 17L11 17L11 18L12 18L12 17L14 17L14 18L13 18L13 20L14 20L14 21L15 21L15 22L14 22L14 23L11 23L11 24L10 24L10 25L9 25L9 26L10 26L10 27L11 27L11 25L12 25L12 24L13 24L13 26L14 26L14 24L15 24L15 23L16 23L16 21L17 21L17 19L18 19L18 18L19 18L19 19L20 19L20 20L19 20L19 22L20 22L20 20L21 20L21 19L20 19L20 17L18 17L18 15L17 15L17 14L15 14L15 15L14 15L14 14L13 14L13 13L15 13L15 11L16 11L16 9ZM17 10L17 12L18 12L18 13L19 13L19 12L18 12L18 10ZM3 11L3 12L4 12L4 13L5 13L5 11ZM2 13L2 15L3 15L3 16L2 16L2 17L3 17L3 18L4 18L4 16L5 16L5 17L7 17L7 16L6 16L6 15L7 15L7 14L6 14L6 15L5 15L5 14L3 14L3 13ZM12 14L12 16L11 16L11 17L12 17L12 16L14 16L14 15L13 15L13 14ZM15 15L15 20L16 20L16 15ZM17 17L17 18L18 18L18 17ZM24 17L24 19L23 19L23 20L26 20L26 18L25 18L25 17ZM11 19L11 20L12 20L12 19ZM21 21L21 24L24 24L24 21ZM22 22L22 23L23 23L23 22ZM26 22L26 24L25 24L25 25L26 25L26 24L27 24L27 22ZM16 24L16 25L17 25L17 24ZM18 26L18 29L22 29L22 28L21 28L21 27L20 27L20 26ZM19 27L19 28L20 28L20 27ZM0 0L0 7L7 7L7 0ZM1 1L1 6L6 6L6 1ZM2 2L2 5L5 5L5 2ZM22 0L22 7L29 7L29 0ZM23 1L23 6L28 6L28 1ZM24 2L24 5L27 5L27 2ZM0 22L0 29L7 29L7 22ZM1 23L1 28L6 28L6 23ZM2 24L2 27L5 27L5 24Z" fill="#000000"/></g></g></svg>
