<?xml version="1.0" encoding="UTF-8"?>
<svg xmlns="http://www.w3.org/2000/svg" version="1.1" width="250" height="250" viewBox="0 0 250 250"><rect x="0" y="0" width="250" height="250" fill="#ffffff"/><g transform="scale(8.621)"><g transform="translate(0,0)"><path fill-rule="evenodd" d="M8 0L8 4L10 4L10 3L11 3L11 4L12 4L12 2L11 2L11 0ZM12 0L12 1L13 1L13 0ZM14 0L14 1L16 1L16 0ZM17 0L17 3L16 3L16 2L14 2L14 5L11 5L11 6L10 6L10 7L9 7L9 5L8 5L8 7L9 7L9 8L10 8L10 7L11 7L11 6L12 6L12 8L11 8L11 9L7 9L7 8L4 8L4 10L2 10L2 8L0 8L0 13L1 13L1 14L0 14L0 18L2 18L2 19L3 19L3 20L0 20L0 21L3 21L3 20L4 20L4 21L5 21L5 20L6 20L6 21L8 21L8 22L9 22L9 21L8 21L8 20L6 20L6 19L9 19L9 16L11 16L11 17L12 17L12 18L10 18L10 19L11 19L11 20L12 20L12 21L13 21L13 20L12 20L12 19L13 19L13 18L15 18L15 19L14 19L14 25L13 25L13 23L12 23L12 24L9 24L9 23L8 23L8 25L10 25L10 26L9 26L9 27L8 27L8 29L10 29L10 26L11 26L11 28L12 28L12 27L13 27L13 26L14 26L14 25L15 25L15 28L14 28L14 29L15 29L15 28L17 28L17 29L18 29L18 27L19 27L19 26L20 26L20 25L21 25L21 27L20 27L20 29L22 29L22 28L23 28L23 29L25 29L25 28L26 28L26 27L27 27L27 29L28 29L28 28L29 28L29 17L28 17L28 16L29 16L29 13L28 13L28 12L29 12L29 8L25 8L25 9L24 9L24 8L23 8L23 9L22 9L22 11L21 11L21 5L19 5L19 3L20 3L20 1L19 1L19 0ZM18 1L18 2L19 2L19 1ZM9 2L9 3L10 3L10 2ZM15 3L15 4L16 4L16 3ZM17 3L17 4L18 4L18 3ZM14 5L14 6L13 6L13 8L12 8L12 9L11 9L11 10L9 10L9 13L8 13L8 10L7 10L7 9L6 9L6 10L5 10L5 12L7 12L7 13L4 13L4 12L2 12L2 10L1 10L1 12L2 12L2 13L3 13L3 14L1 14L1 17L2 17L2 18L5 18L5 19L4 19L4 20L5 20L5 19L6 19L6 18L8 18L8 17L4 17L4 16L5 16L5 15L6 15L6 16L8 16L8 14L9 14L9 15L11 15L11 16L12 16L12 17L15 17L15 16L14 16L14 15L15 15L15 13L16 13L16 11L18 11L18 10L16 10L16 11L15 11L15 12L14 12L14 10L13 10L13 11L12 11L12 12L11 12L11 13L10 13L10 11L11 11L11 10L12 10L12 9L15 9L15 8L16 8L16 9L17 9L17 7L18 7L18 6L19 6L19 7L20 7L20 6L19 6L19 5L17 5L17 7L16 7L16 5ZM14 6L14 8L15 8L15 6ZM19 8L19 11L20 11L20 12L18 12L18 13L17 13L17 14L16 14L16 15L18 15L18 17L19 17L19 18L18 18L18 19L20 19L20 18L22 18L22 17L23 17L23 16L24 16L24 17L26 17L26 18L25 18L25 19L24 19L24 18L23 18L23 19L21 19L21 20L26 20L26 21L25 21L25 22L27 22L27 23L25 23L25 24L26 24L26 25L24 25L24 26L23 26L23 25L22 25L22 27L21 27L21 28L22 28L22 27L23 27L23 28L24 28L24 27L25 27L25 26L28 26L28 25L27 25L27 23L28 23L28 20L27 20L27 19L28 19L28 18L27 18L27 15L28 15L28 14L27 14L27 15L24 15L24 13L27 13L27 11L28 11L28 10L25 10L25 11L26 11L26 12L24 12L24 11L22 11L22 13L20 13L20 12L21 12L21 11L20 11L20 8ZM6 10L6 11L7 11L7 10ZM12 12L12 13L13 13L13 15L12 15L12 16L13 16L13 15L14 15L14 13L13 13L13 12ZM7 13L7 14L6 14L6 15L7 15L7 14L8 14L8 13ZM22 13L22 14L20 14L20 15L19 15L19 14L18 14L18 15L19 15L19 16L20 16L20 17L22 17L22 16L23 16L23 13ZM3 14L3 16L4 16L4 15L5 15L5 14ZM21 15L21 16L22 16L22 15ZM16 16L16 17L17 17L17 16ZM26 18L26 19L27 19L27 18ZM15 19L15 21L16 21L16 19ZM18 20L18 21L20 21L20 20ZM10 21L10 22L11 22L11 21ZM21 21L21 24L24 24L24 21ZM16 22L16 23L15 23L15 25L17 25L17 24L16 24L16 23L17 23L17 22ZM22 22L22 23L23 23L23 22ZM18 23L18 25L19 25L19 23ZM11 25L11 26L12 26L12 25ZM16 26L16 27L17 27L17 26ZM0 0L0 7L7 7L7 0ZM1 1L1 6L6 6L6 1ZM2 2L2 5L5 5L5 2ZM22 0L22 7L29 7L29 0ZM23 1L23 6L28 6L28 1ZM24 2L24 5L27 5L27 2ZM0 22L0 29L7 29L7 22ZM1 23L1 28L6 28L6 23ZM2 24L2 27L5 27L5 24Z" fill="#000000"/></g></g></svg>
